<svg xmlns="http://www.w3.org/2000/svg" viewBox="0 0 96 96" role="img" aria-label="La Grigliata">
  <defs>
    <linearGradient id="bg" x1="0" y1="0" x2="1" y2="1">
      <stop offset="0%" stop-color="#f7d9b2"/>
      <stop offset="100%" stop-color="#d85b28"/>
    </linearGradient>
    <linearGradient id="flame" x1="0" y1="0" x2="0" y2="1">
      <stop offset="0%" stop-color="#ffd46a"/>
      <stop offset="100%" stop-color="#bf3d2f"/>
    </linearGradient>
  </defs>
  <rect width="96" height="96" rx="24" fill="url(#bg)"/>
  <path d="M24 58c0-10 6-18 15-23 1 7 6 10 10 13 3-8 9-13 15-17 2 9 8 16 8 26 0 14-10 23-24 23S24 72 24 58z" fill="url(#flame)"/>
  <path d="M34 64h28" stroke="#2d1f1a" stroke-width="6" stroke-linecap="round"/>
  <path d="M30 74h36" stroke="#2d1f1a" stroke-width="6" stroke-linecap="round"/>
  <path d="M42 56l-8 18M54 56l8 18" stroke="#2d1f1a" stroke-width="5" stroke-linecap="round"/>
</svg>
